<?xml version="1.0" encoding="utf-8"?><svg version="1.1" id="Layer_1" xmlns="http://www.w3.org/2000/svg" xmlns:xlink="http://www.w3.org/1999/xlink" x="0px" y="0px" viewBox="0 0 122.52 122.88" style="enable-background:new 0 0 122.52 122.88" xml:space="preserve"><g><path d="M61.04,99.3c-1.01-0.02-1.94-0.14-2.79-0.33c-3.76-0.87-6.12-3.26-7.51-6.39c-1.29-2.91-1.7-6.45-1.63-9.92 c0.07-3.38,0.6-6.7,1.2-9.31c1-4.32,2.44-8.46,4.25-12.47c1.81-3.99,3.99-7.85,6.46-11.59c0.03-0.04,0.06-0.09,0.09-0.13 c7.37-9.6,16.16-18.64,26.07-26.89c9.91-8.25,20.94-15.68,32.77-22.06c0.85-0.45,1.9-0.14,2.35,0.71c0.45,0.83,0.15,1.86-0.66,2.33 c-6.58,4.17-13.06,9.04-19.1,14.47c-5.71,5.14-11,10.76-15.56,16.74c-5.98,7.83-9.3,13.52-11.13,18.92 c-1.82,5.37-2.2,10.55-2.3,17.32c-0.02,1.24,0.03,2.72,0.08,4.31c0.06,2.05,0.13,4.29,0.08,6.56C73.53,90.5,71.56,99.53,61.04,99.3 L61.04,99.3z M9.6,62.88c1.28,0,2.32,1.04,2.32,2.32c0,1.28-1.04,2.32-2.32,2.32s-2.32-1.04-2.32-2.32 C7.28,63.92,8.32,62.88,9.6,62.88L9.6,62.88z M112.78,63.05c1.28,0,2.32,1.04,2.32,2.32c0,1.28-1.04,2.32-2.32,2.32 c-1.28,0-2.32-1.04-2.32-2.32C110.46,64.09,111.5,63.05,112.78,63.05L112.78,63.05z M100.08,63.98c1.28,0,2.32,1.04,2.32,2.32 c0,1.28-1.04,2.32-2.32,2.32c-1.28,0-2.32-1.04-2.32-2.32C97.76,65.02,98.8,63.98,100.08,63.98L100.08,63.98z M104.88,70.33 c1.28,0,2.32,1.04,2.32,2.32c0,1.28-1.04,2.32-2.32,2.32c-1.28,0-2.32-1.04-2.32-2.32C102.56,71.37,103.6,70.33,104.88,70.33 L104.88,70.33z M93.43,69.56c1.28,0,2.32,1.04,2.32,2.32c0,1.28-1.04,2.32-2.32,2.32c-1.28,0-2.32-1.04-2.32-2.32 C91.1,70.6,92.14,69.56,93.43,69.56L93.43,69.56z M87.39,63.36c1.28,0,2.32,1.04,2.32,2.32c0,1.28-1.04,2.32-2.32,2.32 c-1.28,0-2.32-1.04-2.32-2.32C85.06,64.4,86.1,63.36,87.39,63.36L87.39,63.36z M35,62.57c1.28,0,2.32,1.04,2.32,2.32 c0,1.28-1.04,2.32-2.32,2.32c-1.28,0-2.32-1.04-2.32-2.32C32.67,63.61,33.71,62.57,35,62.57L35,62.57z M22.3,63.5 c1.28,0,2.32,1.04,2.32,2.32s-1.04,2.32-2.32,2.32c-1.28,0-2.32-1.04-2.32-2.32S21.02,63.5,22.3,63.5L22.3,63.5z M27.1,69.84 c1.28,0,2.32,1.04,2.32,2.32s-1.04,2.32-2.32,2.32c-1.28,0-2.32-1.04-2.32-2.32S25.82,69.84,27.1,69.84L27.1,69.84z M15.64,69.07 c1.28,0,2.32,1.04,2.32,2.32s-1.04,2.32-2.32,2.32c-1.28,0-2.32-1.04-2.32-2.32S14.36,69.07,15.64,69.07L15.64,69.07z M122.51,59.96v56.72c0,1.71-0.7,3.25-1.82,4.38c-1.12,1.12-2.67,1.82-4.38,1.82H6.2c-1.7,0-3.25-0.7-4.38-1.82 C0.7,119.94,0,118.39,0,116.68V59.96c0-1.71,0.7-3.26,1.82-4.38c1.12-1.12,2.67-1.82,4.38-1.82c0.25,0,0.48,0.05,0.69,0.14 c6.58,2.59,13.3,3.68,20.12,3.57c6.88-0.11,13.9-1.43,21.02-3.64c0.92-0.28,1.89,0.23,2.17,1.15c0.12,0.38,0.1,0.77-0.03,1.12l0,0 c-2.76,7.31-4.7,13.99-5.62,19.93c-0.89,5.82-0.8,10.88,0.46,15.05c1.79,5.89,5.66,9.8,10.16,11.65c2.62,1.08,5.46,1.46,8.23,1.12 c2.76-0.33,5.44-1.38,7.76-3.16c4.03-3.09,6.99-8.42,7.38-16.09c0.11-2.14,0.01-4.37-0.1-6.85c-0.08-1.85-0.17-3.83-0.18-6.1 c0-0.76-0.03-1.6-0.06-2.45c-0.03-0.87-0.06-1.75-0.06-2.72c-0.04-7.57,2.02-11.2,5.46-12.58c3.26-1.31,7.46-0.33,12.18,1.2 c1.97,0.64,3.47,1.25,4.72,1.76c3.39,1.39,4.47,1.83,10.57-0.82c0.25-0.11,0.41-0.18,0.58-0.25c1.66-0.74,3.93-1.75,6-1.75 C120.37,54.06,122.51,55.43,122.51,59.96L122.51,59.96z M119.03,116.68V59.96c0-1.86-0.61-2.42-1.38-2.42 c-1.35,0-3.22,0.83-4.58,1.44c-0.25,0.11-0.48,0.22-0.6,0.27c-7.44,3.23-8.84,2.66-13.26,0.85c-1.16-0.47-2.56-1.05-4.47-1.67 c-4.05-1.31-7.57-2.18-9.83-1.28c-2.08,0.83-3.32,3.49-3.29,9.34c0,0.85,0.03,1.74,0.06,2.62c0.03,0.84,0.05,1.67,0.06,2.54 c0.01,2.12,0.1,4.11,0.18,5.97c0.11,2.57,0.21,4.88,0.1,7.17c-0.45,8.81-3.95,15.01-8.74,18.68c-2.83,2.17-6.1,3.44-9.46,3.85 c-3.34,0.4-6.78-0.06-9.96-1.36c-5.4-2.22-10.04-6.88-12.16-13.86c-1.43-4.71-1.55-10.28-0.59-16.58c0.81-5.28,2.4-11.11,4.62-17.4 c-6.28,1.71-12.51,2.72-18.68,2.82c-7.17,0.11-14.23-1.01-21.14-3.69c-0.63,0.07-1.2,0.35-1.63,0.78c-0.49,0.49-0.8,1.17-0.8,1.92 v56.72c0,0.74,0.31,1.42,0.8,1.91c0.49,0.49,1.17,0.8,1.91,0.8h110.12c0.74,0,1.42-0.31,1.91-0.8 C118.72,118.11,119.03,117.43,119.03,116.68L119.03,116.68z M59.03,95.58c0.64,0.15,1.34,0.23,2.08,0.25 C68.67,96,70.1,88.7,70.26,81.5c0.05-2.18-0.02-4.38-0.08-6.4c-0.05-1.61-0.09-3.11-0.08-4.45c0.1-7.12,0.51-12.6,2.47-18.39 c1.96-5.77,5.44-11.76,11.66-19.91c2.84-3.72,5.95-7.3,9.25-10.71c-1.38,1.08-2.74,2.18-4.08,3.3 c-9.69,8.06-18.3,16.92-25.51,26.32c-2.36,3.58-4.44,7.25-6.16,11.06c-1.72,3.81-3.09,7.74-4.04,11.81 c-0.56,2.44-1.05,5.52-1.12,8.61c-0.07,3.03,0.27,6.06,1.33,8.45C54.87,93.34,56.48,94.99,59.03,95.58L59.03,95.58z"/></g></svg>