<svg xmlns="http://www.w3.org/2000/svg" shape-rendering="geometricPrecision" text-rendering="geometricPrecision" image-rendering="optimizeQuality" fill-rule="evenodd" clip-rule="evenodd" viewBox="0 0 306 512.511"><path d="M137.658 186.75L77.876 76.498c49.484-8.838 99.439-8.732 149.831-.296-22.572 50.94-53.428 100.322-85.812 148.997-21.763 32.714-39.915 59.716-64.759 90.155L0 405.472c25.396 35.612 50.791 71.221 76.189 106.829a3072.78 3072.78 0 0062.778-80.166 3257.632 3257.632 0 0062.536-85.494c58.918-79.471 114.552-144.901 102.699-195.003-5.443-26.429-15.176-52.858-27.679-79.284-6.788-14.346-25.171-54.148-37.5-62.814C218.684-4.764 119.314 1.259 90.247 1.259c-18.46 2.08-32.923 11.37-41.566 31.177-11.754 19.986-23.492 42.528-33.484 68.51-35.288 91.782-3.069 117.37 49.035 191.242 26.414-33.208 50.155-69.087 73.426-105.438zm29.83 248.436l74.457-101.285c21.113 25.162 42.298 49.877 64.055 71.173l-76.911 107.437c-22.249-24.403-42.562-50.356-61.601-77.325z"/></svg>