<?xml version="1.0" encoding="utf-8"?><svg version="1.1" id="Layer_1" xmlns="http://www.w3.org/2000/svg" xmlns:xlink="http://www.w3.org/1999/xlink" x="0px" y="0px" viewBox="0 0 122.48 122.88" style="enable-background:new 0 0 122.48 122.88" xml:space="preserve"><g><path d="M85.05,72.26c2.7,1.19,5.92,1.73,9.47,1.79c4.2,0.07,8.88-0.51,13.73-1.45c1.18-0.23,2.32,0.55,2.54,1.73 c0.23,1.18-0.55,2.32-1.73,2.54c-5.09,0.99-10.05,1.6-14.61,1.52c-4.18-0.07-8.02-0.73-11.31-2.22c-2.19,2.31-3.39,5.39-3.57,8.53 c-0.09,1.66,0.1,3.33,0.59,4.91c0.48,1.56,1.25,3.04,2.31,4.31c2.15,2.59,5.56,4.43,10.29,4.7l0.06,0l0,0 c2.96,0.25,5.6-0.1,7.94-0.99c2.34-0.89,4.43-2.33,6.3-4.25c5.88-6.07,9.28-15.81,10.52-26.11c1.41-11.67,0.05-23.95-3.6-32.48 c-1.98-4.63-4.7-8.8-8.21-12.05c-3.14-2.91-6.91-5.09-11.36-6.21c-3.22-0.81-6.19-0.72-8.76,0.31c-2.5,1-4.7,2.9-6.47,5.75 c-1.12,1.79-1.94,3.93-2.44,6.21c-0.77,3.5-0.76,7.28,0.12,10.6c0.84,3.14,2.46,5.85,4.97,7.41c0.89,0.56,1.9,0.97,3.04,1.22 c2.54,0.56,5.27-0.18,7.6-1.93c2.36-1.77,4.31-4.57,5.29-8.13c0.32-1.15,1.51-1.83,2.67-1.51c1.15,0.32,1.83,1.51,1.51,2.67 c-1.25,4.52-3.78,8.12-6.87,10.44c-2.76,2.08-5.97,3.15-9.15,2.98c-1.01,1.65-1.62,3.35-1.81,4.91c-0.19,1.62,0.08,3.03,0.85,3.97 c0.83,1,2.3,1.2,3.92,0.99c2.95-0.39,6.22-2.09,8.07-3.37c0.99-0.68,2.34-0.43,3.02,0.55c0.68,0.99,0.43,2.34-0.55,3.02 c-2.24,1.54-6.25,3.6-9.97,4.1c-1.03,0.14-2.04,0.16-3.01,0.04c-0.36,0.88-0.65,1.77-0.88,2.64C85.3,70.34,85.13,71.3,85.05,72.26 L85.05,72.26z M40.03,76c0.36,0.89,0.67,1.79,0.93,2.69c3.48-5.67,6.11-9.7,9.65-10.96c0.01-0.65,0.01-1.29,0.02-1.94 c-1.08-0.08-3.56,1.51-5.62,2.83c-0.8,0.51-1.56,1-2.26,1.39c-0.11,1.96-0.74,3.73-1.91,5.14C40.59,75.47,40.32,75.75,40.03,76 L40.03,76z M42.62,84.3c2.83,3.07,4.39,7.07,4.62,11.13c0.12,2.16-0.13,4.35-0.77,6.42c-0.65,2.09-1.69,4.07-3.13,5.81 c-2.87,3.45-7.29,5.9-13.32,6.26l0,0c-3.61,0.31-6.87-0.14-9.83-1.26c-2.96-1.12-5.58-2.91-7.88-5.29 C5.7,100.56,1.92,89.91,0.57,78.75c-1.5-12.37-0.01-25.49,3.92-34.69c2.21-5.16,5.28-9.85,9.25-13.53 c3.66-3.39,8.07-5.94,13.26-7.25c4.1-1.03,7.96-0.88,11.41,0.5c3.38,1.35,6.29,3.83,8.56,7.48c1.12,1.79,1.99,3.83,2.6,6 c-0.66-8.16-1.66-16.38-3.01-24.65c-0.08-0.51-0.2-1.05-0.31-1.59c-0.75-3.63-1.46-7.03,2.8-9.76c1.1-0.7,2.35-1.12,3.61-1.22 c1.23-0.11,2.48,0.09,3.62,0.58c1.18,0.52,2.21,1.35,2.96,2.52c0.61,0.95,1.02,2.11,1.15,3.47c0.82,4.91,1.51,9.86,2.09,14.87 c0.17-2.34,0.35-4.67,0.53-7c0.07-0.82,0.09-1.54,0.12-2.28c0.18-5.37,0.39-11.62,7.64-12.07c0.53-0.03,1.07-0.01,1.61,0.08 c1.85,0.3,3.64,1.32,5.01,3.35c1.19,1.78,2.06,4.36,2.28,7.97c0.07,1.17,0.08,2.47,0.01,3.9c1.35-1.12,2.81-1.98,4.38-2.61 c3.45-1.38,7.31-1.53,11.41-0.5c5.19,1.31,9.6,3.85,13.26,7.25c3.97,3.69,7.04,8.37,9.25,13.53c3.93,9.2,5.42,22.31,3.92,34.69 c-1.35,11.16-5.13,21.81-11.73,28.63c-2.31,2.38-4.92,4.17-7.88,5.29c-2.96,1.12-6.22,1.56-9.83,1.26l0,0 c-6.03-0.36-10.45-2.8-13.32-6.26c-1.44-1.74-2.48-3.72-3.13-5.81c-0.64-2.08-0.9-4.26-0.77-6.42c0.25-4.44,2.09-8.81,5.45-11.96 c0.01-0.24,0.03-0.48,0.05-0.72c-1.98-0.48-3.15-0.65-5.68-0.09c-0.13,0.03-0.27,0.05-0.4,0.05l-3.74,42.09 c0,0.03,0,0.06-0.01,0.09c-0.05,0.55-0.18,1.32-0.34,2.17c-0.15,0.81-0.33,1.7-0.5,2.52c-0.26,1.27-1.06,2.41-2.09,3.17 c-0.71,0.52-1.56,0.89-2.45,1.01c-0.97,0.13-1.97-0.02-2.9-0.55c-0.84-0.47-1.58-1.23-2.13-2.35c-0.92,1.2-2.06,2.02-3.28,2.49 c-1.14,0.45-2.34,0.58-3.49,0.44c-1.16-0.14-2.27-0.55-3.25-1.21c-2.27-1.53-3.78-4.34-3.24-8.04l0-0.03 c1.77-13.4,2.93-26.98,3.29-40.74c-1.86,1.64-3.89,4.95-6.51,9.23C43.55,82.79,43.07,83.57,42.62,84.3L42.62,84.3z M50.32,49.05 c-0.13,0.82-0.3,1.63-0.51,2.42c-0.55,2.06-1.38,3.99-2.5,5.69c0.16,0.01,0.33,0.02,0.5,0.02c0.87,0.01,1.79-0.1,2.76-0.26 C50.52,54.3,50.44,51.68,50.32,49.05L50.32,49.05z M43.87,60.84c-0.3,0.22-0.61,0.43-0.92,0.63c-0.62,0.39-1.28,0.73-1.98,1.02 c0.48,0.94,0.87,1.89,1.17,2.84c0.18-0.11,0.36-0.23,0.54-0.35c2.5-1.6,5.38-3.45,7.96-3.5l0-0.18c-0.96,0.14-1.91,0.22-2.83,0.22 C46.42,61.5,45.1,61.3,43.87,60.84L43.87,60.84z M36.56,63.51c-3.18,0.17-6.39-0.9-9.15-2.98c-3.09-2.32-5.62-5.92-6.87-10.44 c-0.32-1.15,0.36-2.35,1.51-2.67c1.15-0.32,2.35,0.36,2.67,1.51c0.98,3.56,2.93,6.35,5.29,8.13c2.33,1.75,5.05,2.49,7.6,1.93 c1.14-0.25,2.15-0.67,3.04-1.22c2.51-1.56,4.13-4.27,4.97-7.41c0.88-3.32,0.88-7.09,0.12-10.6c-0.5-2.28-1.32-4.42-2.44-6.21 c-1.77-2.84-3.97-4.75-6.47-5.75c-2.57-1.03-5.54-1.12-8.76-0.31c-4.44,1.12-8.22,3.3-11.36,6.21c-3.51,3.26-6.23,7.43-8.21,12.05 c-3.65,8.53-5.01,20.81-3.6,32.48c1.25,10.3,4.64,20.04,10.52,26.11c1.87,1.93,3.96,3.37,6.3,4.25c2.35,0.89,4.98,1.24,7.94,0.99 l0,0l0.06,0c4.73-0.27,8.13-2.11,10.29-4.7c1.06-1.28,1.83-2.75,2.31-4.31C42.81,99,43,97.33,42.9,95.67 c-0.18-3.14-1.38-6.22-3.57-8.53c-3.29,1.49-7.13,2.15-11.31,2.22c-4.56,0.08-9.52-0.53-14.61-1.52c-1.18-0.23-1.95-1.36-1.73-2.54 c0.23-1.18,1.36-1.95,2.54-1.73c4.85,0.94,9.53,1.53,13.73,1.45c3.55-0.06,6.77-0.6,9.47-1.79c-0.08-0.96-0.25-1.91-0.5-2.87 c-0.23-0.88-0.53-1.76-0.88-2.64c-0.97,0.12-1.98,0.1-3.01-0.04c-3.73-0.5-7.74-2.55-9.97-4.1c-0.99-0.68-1.23-2.03-0.55-3.02 c0.68-0.99,2.03-1.23,3.02-0.55c1.85,1.28,5.12,2.98,8.07,3.37c1.62,0.22,3.09,0.02,3.92-0.99c0.77-0.93,1.05-2.35,0.85-3.97 C38.18,66.87,37.57,65.17,36.56,63.51L36.56,63.51z M56.06,7.01c-0.05-0.64-0.22-1.15-0.47-1.53c-0.26-0.41-0.63-0.71-1.04-0.89 c-0.45-0.2-0.98-0.27-1.53-0.23c-0.57,0.05-1.13,0.23-1.62,0.54c-1.75,1.12-1.34,3.11-0.9,5.22c0.12,0.58,0.24,1.16,0.34,1.78 c2.87,17.53,4.13,34.85,4.12,51.91c-0.01,17.05-1.27,33.82-3.45,50.29c0,0.04-0.01,0.07-0.02,0.11c-0.26,1.81,0.39,3.13,1.38,3.8 c0.4,0.27,0.86,0.44,1.33,0.5c0.47,0.06,0.95,0,1.4-0.17c1.27-0.49,2.37-1.96,2.65-4.68l0,0c0.73-8.83,1.31-17.59,1.69-26.26 c0.04-9.28,0.21-18.32,0.49-27.19c0-0.37-0.01-0.74-0.01-1.11c-0.23-17.76-1.55-35.11-4.35-51.9C56.08,7.13,56.07,7.07,56.06,7.01 L56.06,7.01L56.06,7.01z M64.79,60.3c0.09,9.05-0.09,18.19-0.49,27.4c-0.02,4.28-0.01,8.62,0.03,13c0.01,1.83-0.14,3.87-0.3,5.99 c-0.31,4.18-0.65,8.72,0.22,10.99c0.17,0.44,0.34,0.68,0.51,0.77c0.05,0.03,0.11,0.03,0.19,0.02c0.15-0.02,0.31-0.1,0.46-0.21 c0.22-0.16,0.37-0.35,0.41-0.54c0.16-0.79,0.34-1.65,0.48-2.44c0.14-0.75,0.25-1.4,0.29-1.8l0.01-0.07l6.27-70.46 c0.03-0.33,0.13-0.64,0.29-0.91c-0.18-0.52-0.34-1.04-0.48-1.58c-1.06-3.99-1.07-8.49-0.17-12.62c0.49-2.22,1.24-4.35,2.24-6.25 c-0.04-0.23-0.05-0.48-0.01-0.73c0.6-3.71,0.76-6.71,0.61-9.11c-0.17-2.78-0.76-4.64-1.55-5.82c-0.62-0.92-1.36-1.37-2.09-1.48 c-0.21-0.03-0.43-0.04-0.66-0.03c-3.32,0.21-3.46,4.33-3.58,7.87c-0.03,0.92-0.06,1.82-0.12,2.49c-1.1,13.77-1.92,27.6-2.43,41.74 C64.87,57.8,64.83,59.05,64.79,60.3L64.79,60.3z M76.75,48.2l-0.85,9.55c1.44-0.15,2.54-0.04,3.81,0.22 c0.01-0.34,0.04-0.68,0.08-1.03c0.21-1.76,0.79-3.61,1.73-5.43c-0.7-0.29-1.36-0.63-1.98-1.02C78.5,49.84,77.57,49.07,76.75,48.2 L76.75,48.2z M82.45,65.03c-0.29-0.25-0.56-0.53-0.82-0.84c-0.39-0.47-0.72-0.98-0.99-1.53c-2.02-0.51-3.14-0.78-5.13-0.47 l-0.45,5.07c2.8-0.53,4.25-0.31,6.52,0.25C81.82,66.67,82.12,65.84,82.45,65.03L82.45,65.03z"/></g></svg>